# xmcd CD database file
#
# Track frame offsets:
#	150
#	12940
#	27815
#	42900
#	57060
#	75882
#	88802
#	101757
#	116497
#	128935
#	143880
#	161622
#	180025
#	199210
#	212992
#	230167
#	248887
#	261025
#	275947
#	292282
#	311790
#	326297
#	339975
#
# Disc length: 4689 seconds
#
# Revision: 2
# Processed by: cddbd v1.5.2PL0 Copyright (c) Steve Scherf et al.
# Submitted via: Feurio! 1.68 - http://www.feurio.com
#
DISCID=4f124f17
DTITLE=Su Kramer - Wie das Wasser, So fließt die Zeit
DYEAR=1998
DGENRE=Deutsch
TTITLE0=Nein sagt sich so leicht, 1970
TTITLE1=Glaub an dich selbst, 1972
TTITLE2=Holy Moses, 1971
TTITLE3=Wie das Wasser, so fließt die Zeit, 1971
TTITLE4=Der Himmel über mir, 1971
TTITLE5=Was für dich in den Sternen steht, 1972
TTITLE6=Was habt ihr nur aus der Welt gemacht? 1971
TTITLE7=Kinder der Liebe, 1973
TTITLE8=Lampenfieber, 1974
TTITLE9=Hilf mir durch die dunkle Nacht, 1974
TTITLE10=Abends in einer großen Stadt, 1975
TTITLE11=Hier ist das Leben, 1976
TTITLE12=Wo liegt im Sommer der Schnee? 1977
TTITLE13=Ruf nach mir, 1978
TTITLE14=Die grüne Witwe, 1978
TTITLE15=Das Lied, 1978
TTITLE16=Melodie der großen Einsamkeit, 1978
TTITLE17=Nachts in Manhattan, 1978
TTITLE18=Oh Lady, 1978
TTITLE19=Wir zwei sind frei, 1979
TTITLE20=Die letzten Sterne, 1970
TTITLE21=Hare Krishna, 1970
TTITLE22=Nein sagt sich so leicht, 1968
EXTD=
EXTT0=
EXTT1=
EXTT2=
EXTT3=
EXTT4=
EXTT5=
EXTT6=
EXTT7=
EXTT8=
EXTT9=
EXTT10=
EXTT11=
EXTT12=
EXTT13=
EXTT14=
EXTT15=
EXTT16=
EXTT17=
EXTT18=
EXTT19=
EXTT20=
EXTT21=
EXTT22=
PLAYORDER=
